<?xml version="1.0" encoding="UTF-8" standalone="no"?>
<!-- Generator: Adobe Illustrator 19.0.0, SVG Export Plug-In . SVG Version: 6.00 Build 0)  -->

<svg
   xmlns:dc="http://purl.org/dc/elements/1.1/"
   xmlns:cc="http://creativecommons.org/ns#"
   xmlns:rdf="http://www.w3.org/1999/02/22-rdf-syntax-ns#"
   xmlns:svg="http://www.w3.org/2000/svg"
   xmlns="http://www.w3.org/2000/svg"
   xmlns:sodipodi="http://sodipodi.sourceforge.net/DTD/sodipodi-0.dtd"
   xmlns:inkscape="http://www.inkscape.org/namespaces/inkscape"
   version="1.1"
   id="Capa_1"
   x="0px"
   y="0px"
   viewBox="0 0 253.34707 174.4435"
   xml:space="preserve"
   inkscape:version="0.91 r13725"
   sodipodi:docname="gold.svg"
   width="253.34708"
   height="174.4435"><metadata
     id="metadata61"><rdf:RDF><cc:Work
         rdf:about=""><dc:format>image/svg+xml</dc:format><dc:type
           rdf:resource="http://purl.org/dc/dcmitype/StillImage" /><dc:title></dc:title></cc:Work></rdf:RDF></metadata><defs
     id="defs59" /><sodipodi:namedview
     pagecolor="#ffffff"
     bordercolor="#666666"
     borderopacity="1"
     objecttolerance="10"
     gridtolerance="10"
     guidetolerance="10"
     inkscape:pageopacity="0"
     inkscape:pageshadow="2"
     inkscape:window-width="1690"
     inkscape:window-height="884"
     id="namedview57"
     showgrid="false"
     fit-margin-top="0"
     fit-margin-left="0"
     fit-margin-right="0"
     fit-margin-bottom="0"
     inkscape:zoom="1.3037281"
     inkscape:cx="-146.61523"
     inkscape:cy="162.5993"
     inkscape:window-x="0"
     inkscape:window-y="27"
     inkscape:window-maximized="0"
     inkscape:current-layer="Capa_1" /><path
     style="fill:#ffb125;stroke:#000000;stroke-width:5;stroke-miterlimit:4;stroke-dasharray:none;stroke-opacity:1"
     d="M 108.77935,101.804 C 106.64635,93.7835 98.111347,87.2215 89.812347,87.2215 l -52.875,0 c -7.4715,0 -14.0085,5.0255 -15.9285,12.246 L 2.5798474,168.765 c -0.427,1.605 0.783,3.1785 2.444,3.1785 l 119.1195026,0 c 1.6605,0 2.8705,-1.5735 2.444,-3.1785 l -17.808,-66.961 z"
     id="path3"
     inkscape:connector-curvature="0" /><path
     style="fill:#ffb125;stroke:#000000;stroke-width:5;stroke-miterlimit:4;stroke-dasharray:none;stroke-opacity:1"
     d="m 232.95885,101.804 c -2.133,-8.0205 -10.668,-14.5825 -18.9675,-14.5825 l -52.874,0 c -7.4715,0 -14.0085,5.0255 -15.9285,12.246 l -18.429,69.297 c -0.427,1.605 0.783,3.1785 2.444,3.1785 l 119.1195,0 c 1.6605,0 2.8705,-1.5735 2.444,-3.1785 l -17.8085,-66.9605 z"
     id="path7"
     inkscape:connector-curvature="0" /><path
     style="fill:#ffb125;stroke:#000000;stroke-width:5;stroke-miterlimit:4;stroke-dasharray:none;stroke-opacity:1"
     d="M 170.86885,17.0825 C 168.73585,9.062 160.20085,2.5 151.90185,2.5 l -52.874503,0 c -7.4715,0 -14.0085,5.0255 -15.9285,12.246 l -18.429,69.297 c -0.427,1.605 0.783,3.1785 2.444,3.1785 l 119.120003,0 c 1.6605,0 2.8705,-1.5735 2.444,-3.1785 l -17.809,-66.9605 z"
     id="path11"
     inkscape:connector-curvature="0" /><g
     id="g27"
     transform="matrix(0.5,0,0,0.5,-1.3266526,-72.9825)" /><g
     id="g29"
     transform="matrix(0.5,0,0,0.5,-1.3266526,-72.9825)" /><g
     id="g31"
     transform="matrix(0.5,0,0,0.5,-1.3266526,-72.9825)" /><g
     id="g33"
     transform="matrix(0.5,0,0,0.5,-1.3266526,-72.9825)" /><g
     id="g35"
     transform="matrix(0.5,0,0,0.5,-1.3266526,-72.9825)" /><g
     id="g37"
     transform="matrix(0.5,0,0,0.5,-1.3266526,-72.9825)" /><g
     id="g39"
     transform="matrix(0.5,0,0,0.5,-1.3266526,-72.9825)" /><g
     id="g41"
     transform="matrix(0.5,0,0,0.5,-1.3266526,-72.9825)" /><g
     id="g43"
     transform="matrix(0.5,0,0,0.5,-1.3266526,-72.9825)" /><g
     id="g45"
     transform="matrix(0.5,0,0,0.5,-1.3266526,-72.9825)" /><g
     id="g47"
     transform="matrix(0.5,0,0,0.5,-1.3266526,-72.9825)" /><g
     id="g49"
     transform="matrix(0.5,0,0,0.5,-1.3266526,-72.9825)" /><g
     id="g51"
     transform="matrix(0.5,0,0,0.5,-1.3266526,-72.9825)" /><g
     id="g53"
     transform="matrix(0.5,0,0,0.5,-1.3266526,-72.9825)" /><g
     id="g55"
     transform="matrix(0.5,0,0,0.5,-1.3266526,-72.9825)" /></svg>